<svg xmlns="http://www.w3.org/2000/svg" width="2.4in" height="2.4in" viewBox="0 0 175.2 175.3"><path d="M87.9 0c15 0 30-.1 45 .1 25.8.2 41.1 13.7 41.8 39.5.9 33.1.5 66.3-.3 99.4-.4 18.7-13.3 32.1-31.7 35.1-6.1 1-12.3.8-18.4 1.2-3.1.2-4.1-1.2-4.1-4.2v-62.5c-.1-3.4 1.6-4.2 4.6-4.2 4.6.1 9.3-.1 14 .1 3.2.1 4.4-1.3 4.3-4.5s.2-8.7-.2-13a4.9 4.9 0 0 0-3.4-3.4 125.1 125.1 0 0 0-15-.1c-3.2.1-4.4-1.3-4.3-4.5s0-8.3 0-12.5c0-9 5-14.4 14.2-15.2 3.4-.3 8.4.5 9.8-1.3s.9-7 .9-10.6c.1-7 0-7-7.1-7-5.2 0-10.4-.1-15.5 0-14.3.2-24.9 10.8-25.1 25-.1 7.2-.2 14.3 0 21.5.1 3.5-1.3 4.7-4.7 4.6s-9.3 0-14-.1c-3-.1-4.2 1.2-4.1 4.2s.1 8.6 0 13c0 2.7 1.2 3.8 3.9 3.8H93c3.2 0 4.4 1.2 4.4 4.5-.1 20.6-.1 41.3 0 61.9 0 2.8-.6 4.6-3.8 4.5-19.5-.3-39.1.4-58.5-1-20.9-1.5-34.6-16.9-34.8-38-.4-32.6-.4-65.3 0-97.9C.5 16.3 16.7.6 38.9.2c16.3-.3 32.7-.1 49-.1z"/></svg>