<svg xmlns="http://www.w3.org/2000/svg"><symbol id="cart" viewBox="0 0 174.6 174.8"><path fill="none" stroke="#231f20" stroke-linecap="round" stroke-linejoin="round" stroke-width="7" d="M44.3 48h125.9l-16.5 62.1H59L44.3 48z"/><path fill="none" stroke="#231f20" stroke-linecap="round" stroke-linejoin="round" stroke-width="7" d="M4.6 24.6h34.2l24.6 104 90.8-.3M54.1 79.8h105.1"/><circle cx="78.9" cy="150.8" r="11" fill="none" stroke="#231f20" stroke-linecap="round" stroke-linejoin="round" stroke-width="7"/><circle cx="138.9" cy="150.8" r="11" fill="none" stroke="#231f20" stroke-linecap="round" stroke-linejoin="round" stroke-width="7"/></symbol><symbol id="clothing" viewBox="0 0 174.6 174.8"><path fill="none" stroke="#231f20" stroke-miterlimit="10" stroke-width="7" d="M88 167.3c31.8 0 43.9-3.1 43.9-3.1V63.7l11 10.4s10.4-16.2 21.1-25.4c0 0-30.2-30.6-32.1-31S106.2 7.5 103 7.2c-7.8-.9-7.2 1.8-15 2s-7.2-2.9-15.1-2c-3.2.3-26.3 8.6-28.8 10.5S12 48.6 12 48.6c10.7 9.3 21.1 25.5 21.1 25.5l11-10.4v100.5s12.1 3.1 43.9 3.1z"/></symbol><symbol id="facebook" viewBox="0 0 175.2 175.3"><path d="M87.9 0c15 0 30-.1 45 .1 25.8.2 41.1 13.7 41.8 39.5.9 33.1.5 66.3-.3 99.4-.4 18.7-13.3 32.1-31.7 35.1-6.1 1-12.3.8-18.4 1.2-3.1.2-4.1-1.2-4.1-4.2v-62.5c-.1-3.4 1.6-4.2 4.6-4.2 4.6.1 9.3-.1 14 .1 3.2.1 4.4-1.3 4.3-4.5s.2-8.7-.2-13a4.9 4.9 0 0 0-3.4-3.4 125.1 125.1 0 0 0-15-.1c-3.2.1-4.4-1.3-4.3-4.5s0-8.3 0-12.5c0-9 5-14.4 14.2-15.2 3.4-.3 8.4.5 9.8-1.3s.9-7 .9-10.6c.1-7 0-7-7.1-7-5.2 0-10.4-.1-15.5 0-14.3.2-24.9 10.8-25.1 25-.1 7.2-.2 14.3 0 21.5.1 3.5-1.3 4.7-4.7 4.6s-9.3 0-14-.1c-3-.1-4.2 1.2-4.1 4.2s.1 8.6 0 13c0 2.7 1.2 3.8 3.9 3.8H93c3.2 0 4.4 1.2 4.4 4.5-.1 20.6-.1 41.3 0 61.9 0 2.8-.6 4.6-3.8 4.5-19.5-.3-39.1.4-58.5-1-20.9-1.5-34.6-16.9-34.8-38-.4-32.6-.4-65.3 0-97.9C.5 16.3 16.7.6 38.9.2c16.3-.3 32.7-.1 49-.1z"/></symbol><symbol id="navigation" viewBox="0 0 174.6 174.8"><rect width="174.6" height="17.92" y="25.7" rx="2.8"/><rect width="174.6" height="17.92" y="79.4" rx="2.8"/><rect width="174.6" height="17.92" y="133.2" rx="2.8"/></symbol><symbol id="instagram" viewBox="0 0 174.6 174.8"><path d="M.1 87.4V39.9C.1 17.8 15.4 1 37.6.6 70.4 0 103.2-.5 136 .7c22.3.8 38.3 15.1 38.4 39.5q.3 47.3.1 94.5c-.1 23.7-14 39.1-37.6 39.9-20.9.7-41.9-.6-62.9-.9-11.5-.2-23-.7-34.5-.2-21.6 1-40.1-16.9-39.5-39.6.4-15.5.1-31 .1-46.5zm152.8.7h-.8c0-9.4.1-18.7 0-28-.4-20.9-14.3-35.7-35.2-36.6-17.2-.7-34.3-.6-51.5-.7A74.2 74.2 0 0 0 53 23.9c-18.6 3.3-30 16.6-30.5 35.9-.4 17.1-.3 34.3-.1 51.5a59.4 59.4 0 0 0 2.1 15.7c3.9 13.1 12.3 22.4 26.2 24.5 23.6 3.6 47.5 2.7 71.2 0 15.7-1.8 26.3-11.9 28.8-27.6 1.9-11.8 1.5-23.9 2.2-35.8z"/><path fill="#fff" d="M152.9 88.1c-.7 11.9-.3 24-2.2 35.8-2.5 15.7-13.1 25.8-28.8 27.6-23.7 2.7-47.6 3.6-71.2 0-13.9-2.1-22.3-11.4-26.2-24.5a59.4 59.4 0 0 1-2.1-15.7c-.2-17.2-.3-34.4.1-51.5C23 40.5 34.4 27.2 53 23.9a74.2 74.2 0 0 1 12.4-1.1c17.2.1 34.3 0 51.5.7 20.9.9 34.8 15.7 35.2 36.6.1 9.3 0 18.6 0 28zm-118.2 0h-.5c0 8.3-.1 16.7.1 25a48.4 48.4 0 0 0 1.8 11.3c2.2 8.3 8 13.7 16.3 14.9 22.2 3.2 44.6 3 66.8.6 12.7-1.4 20-8.5 20.5-21.3.8-20.6.9-41.3-.1-61.9-.7-13.3-9.9-21.2-23.3-21.4-19.1-.4-38.3-.4-57.4 0-14.1.2-22.9 8.3-24 22.3-.8 10.1-.2 20.3-.2 30.5z"/><path d="M34.7 88.1c0-10.2-.6-20.4.2-30.5 1.1-14 9.9-22.1 24-22.3 19.1-.4 38.3-.4 57.4 0 13.4.2 22.6 8.1 23.3 21.4 1 20.6.9 41.3.1 61.9-.5 12.8-7.8 19.9-20.5 21.3-22.2 2.4-44.6 2.6-66.8-.6-8.3-1.2-14.1-6.6-16.3-14.9a48.4 48.4 0 0 1-1.8-11.3c-.2-8.3-.1-16.7-.1-25zm52.4 33.1c18.8 0 33.5-14.4 33.6-32.9a33.2 33.2 0 0 0-33.3-33.9C69 54.3 53.5 69.7 53.6 88a33.6 33.6 0 0 0 33.5 33.2zM122 45.4a7.7 7.7 0 0 0-7.8 7.4 8 8 0 0 0 7.5 8.4 7.9 7.9 0 1 0 .3-15.8z"/><path fill="#fff" d="M87.1 121.2A33.6 33.6 0 0 1 53.6 88C53.5 69.7 69 54.3 87.4 54.4a33.2 33.2 0 0 1 33.3 33.9c-.1 18.5-14.8 32.9-33.6 32.9zm0-55c-11.8 0-21.2 9.8-21.2 21.9a21.3 21.3 0 0 0 21.3 21.3 21.6 21.6 0 1 0-.1-43.2zM122 45.4a7.9 7.9 0 1 1-.3 15.8 8 8 0 0 1-7.5-8.4 7.7 7.7 0 0 1 7.8-7.4z"/><path d="M87.1 66.2a21.6 21.6 0 1 1 .1 43.2 21.3 21.3 0 0 1-21.3-21.3c0-12.1 9.4-21.9 21.2-21.9z"/></symbol><symbol id="twitter" viewBox="0 0 176 176.9"><path d="M176 88.6v48.9c0 16.8-9.7 31.3-25.6 36.2-7.1 2.2-15 2.8-22.6 2.9-27.7.3-55.3.4-83 0-12.6-.2-24.8-2.5-34.1-12.5C3.5 156.3.3 146.9.2 136.7-.1 104.4 0 72.1.1 39.8.2 21.2 10.9 6.7 28.3 1.9A60.4 60.4 0 0 1 43.6.1c28.8-.1 57.6-.2 86.5 0a98.3 98.3 0 0 1 18.7 2.1C165 5.6 176 22.7 176 38.6v50zM37.3 44.9C31.5 57 33.7 67 42.5 76.8l-8.3-1.9c-.3 12 6.8 18.1 17 23.7h-8.4c2.1 8.8 8.3 14.1 20.2 17-10 7.4-21 9.7-34.2 9.1a41.3 41.3 0 0 0 4.9 3.2c22.1 10.7 44.4 11.4 66.2-.3s32.6-30.6 35.3-54.7c.5-5.2 1.4-9.9 6.2-13.1 2.1-1.4 3.3-4 5-6l-.9-.8-8 1.8 6.6-11.2c-12.1 4.5-12 4.5-23.2-.7S93 42.7 88.2 56.2c-1.5 4.2-2 8.6-3.1 13.4-19.1-1-34.4-10-47.8-24.7z"/><path fill="#fff" d="M37.3 44.9C50.7 59.6 66 68.6 85.1 69.6c1.1-4.8 1.6-9.2 3.1-13.4 4.8-13.5 20.2-19.1 32.7-13.3s11.1 5.2 23.2.7l-6.6 11.2 8-1.8.9.8c-1.7 2-2.9 4.6-5 6-4.8 3.2-5.7 7.9-6.2 13.1-2.7 24.1-13.8 43.1-35.3 54.7s-44.1 11-66.2.3a41.3 41.3 0 0 1-4.9-3.2c13.2.6 24.2-1.7 34.2-9.1-11.9-2.9-18.1-8.2-20.2-17h8.4C41 93 33.9 86.9 34.2 74.9l8.3 1.9c-8.8-9.8-11-19.8-5.2-31.9z"/></symbol><symbol id="skateboard" viewBox="0 0 174.6 174.8"><path fill="none" stroke="#231f20" stroke-miterlimit="10" stroke-width="7" d="M72.5 127.2a5 5 0 1 1-8.1 5.9m76-53a5.1 5.1 0 1 1-8.2 6"/><rect width="48.1" height="165.49" x="62.2" y="5" fill="none" stroke="#231f20" stroke-miterlimit="10" stroke-width="7" rx="24" transform="rotate(54.6 86.206 87.632)"/></symbol></svg>