<svg xmlns="http://www.w3.org/2000/svg" width="2.4in" height="2.4in" viewBox="0 0 174.6 174.8"><path d="M.1 87.4V39.9C.1 17.8 15.4 1 37.6.6 70.4 0 103.2-.5 136 .7c22.3.8 38.3 15.1 38.4 39.5q.3 47.3.1 94.5c-.1 23.7-14 39.1-37.6 39.9-20.9.7-41.9-.6-62.9-.9-11.5-.2-23-.7-34.5-.2-21.6 1-40.1-16.9-39.5-39.6.4-15.5.1-31 .1-46.5zm152.8.7h-.8c0-9.4.1-18.7 0-28-.4-20.9-14.3-35.7-35.2-36.6-17.2-.7-34.3-.6-51.5-.7A74.2 74.2 0 0 0 53 23.9c-18.6 3.3-30 16.6-30.5 35.9-.4 17.1-.3 34.3-.1 51.5a59.4 59.4 0 0 0 2.1 15.7c3.9 13.1 12.3 22.4 26.2 24.5 23.6 3.6 47.5 2.7 71.2 0 15.7-1.8 26.3-11.9 28.8-27.6 1.9-11.8 1.5-23.9 2.2-35.8z"/><path fill="#fff" d="M152.9 88.1c-.7 11.9-.3 24-2.2 35.8-2.5 15.7-13.1 25.8-28.8 27.6-23.7 2.7-47.6 3.6-71.2 0-13.9-2.1-22.3-11.4-26.2-24.5a59.4 59.4 0 0 1-2.1-15.7c-.2-17.2-.3-34.4.1-51.5C23 40.5 34.4 27.2 53 23.9a74.2 74.2 0 0 1 12.4-1.1c17.2.1 34.3 0 51.5.7 20.9.9 34.8 15.7 35.2 36.6.1 9.3 0 18.6 0 28zm-118.2 0h-.5c0 8.3-.1 16.7.1 25a48.4 48.4 0 0 0 1.8 11.3c2.2 8.3 8 13.7 16.3 14.9 22.2 3.2 44.6 3 66.8.6 12.7-1.4 20-8.5 20.5-21.3.8-20.6.9-41.3-.1-61.9-.7-13.3-9.9-21.2-23.3-21.4-19.1-.4-38.3-.4-57.4 0-14.1.2-22.9 8.3-24 22.3-.8 10.1-.2 20.3-.2 30.5z"/><path d="M34.7 88.1c0-10.2-.6-20.4.2-30.5 1.1-14 9.9-22.1 24-22.3 19.1-.4 38.3-.4 57.4 0 13.4.2 22.6 8.1 23.3 21.4 1 20.6.9 41.3.1 61.9-.5 12.8-7.8 19.9-20.5 21.3-22.2 2.4-44.6 2.6-66.8-.6-8.3-1.2-14.1-6.6-16.3-14.9a48.4 48.4 0 0 1-1.8-11.3c-.2-8.3-.1-16.7-.1-25zm52.4 33.1c18.8 0 33.5-14.4 33.6-32.9a33.2 33.2 0 0 0-33.3-33.9C69 54.3 53.5 69.7 53.6 88a33.6 33.6 0 0 0 33.5 33.2zM122 45.4a7.7 7.7 0 0 0-7.8 7.4 8 8 0 0 0 7.5 8.4 7.9 7.9 0 1 0 .3-15.8z"/><path fill="#fff" d="M87.1 121.2A33.6 33.6 0 0 1 53.6 88C53.5 69.7 69 54.3 87.4 54.4a33.2 33.2 0 0 1 33.3 33.9c-.1 18.5-14.8 32.9-33.6 32.9zm0-55c-11.8 0-21.2 9.8-21.2 21.9a21.3 21.3 0 0 0 21.3 21.3 21.6 21.6 0 1 0-.1-43.2zM122 45.4a7.9 7.9 0 1 1-.3 15.8 8 8 0 0 1-7.5-8.4 7.7 7.7 0 0 1 7.8-7.4z"/><path d="M87.1 66.2a21.6 21.6 0 1 1 .1 43.2 21.3 21.3 0 0 1-21.3-21.3c0-12.1 9.4-21.9 21.2-21.9z"/></svg>