<svg id="Layer_1" data-name="Layer 1" xmlns="http://www.w3.org/2000/svg" width="4.7in" height="3.1in" viewBox="0 0 342 220.7"><title>logoArtboard 1</title><path d="M63.3,186.7h3V33.3C66.3,17,52.4,3.7,35.4,3.7h0C18.4,3.7,4.6,17,4.6,33.3,4.6,33.3,63.3,44,63.3,186.7Z" fill="#231f20"/><path d="M7.5,33.2H4.6V186.6c0,16.3,13.8,29.6,30.8,29.6h0c17,0,30.9-13.3,30.9-29.6C66.3,186.6,7.5,175.9,7.5,33.2Z" fill="#231f20"/><path d="M136.5,97.5h-10c-2.1-7-9.1-37.6-10.4-43.1-.3-2.8-.7-5.7-1.4-13.6a80.4,80.4,0,0,1-1.5,12.5c-.9,4.4-8.3,34-11.2,44.7-2.3-.3-6.7-.3-9.2-.5-7.7-26-13.4-56-20.2-81.1L85.2,13l2.6,6.3C93.2,32.8,97.3,56.8,98.9,65c1.6-8.5,4.2-23.3,11.3-51.3l9.9-.3c3.7,29,9.6,46.4,10.7,55.7,2.1-11.3,8-41.2,12.5-55.9l12.5,3.5C151.2,35.5,140.6,77.3,136.5,97.5Z" fill="#231f20"/><path d="M201.2,90.7c-4.8,7.9-14.2,8.6-21.7,8.6h-2.1c-5.5-2.1-7.7-4.5-10-8s-4.2-16.3-4.2-29.1c0-10.8.6-22.4.9-31.6.2-5.4,1.9-11.4,6.3-14.8s8.2-2.8,13.1-2.8,12.4,1.2,15.3,2.8c5.7,3.1,6.9,12,6.9,21.4,0,5.7-.5,11.5-.6,16.4C204.6,67.5,205.6,83.5,201.2,90.7ZM185.6,25.3c-3.2-.2-7.9-.1-8.4,4.5-1.4,13.3-1.3,31.5-1.1,45.6,0,2.8,1.4,9.2,5.3,9.5s8.8-.9,9.4-5.1c1.9-13.2.8-30.4.5-48.9C190.8,27.7,188.6,26.1,185.6,25.3Z" fill="#231f20"/><path d="M258.4,61.8c0,12.8-.8,24.5-4.2,29.5s-4.5,5.9-10,8h-6.4c-6.5,0-13.3-.7-16.5-5.9-4.4-7.1-4.3-26-4.8-39.9-.1-4.9-.6-10.7-.6-16.4,0-9.4,1.2-18.3,6.9-21.4,2.8-1.4,8.6-2.7,14.4-2.7s10.1.9,13.3,3.4a19.3,19.3,0,0,1,7,14.1C257.8,39.7,258.4,51.1,258.4,61.8Zm-14-32c-.5-4.6-5.2-4.7-8.4-4.5s-5.2,2.4-5.7,5.6a509.6,509.6,0,0,0,1.9,51.3c.3,2.9,3.1,4,5.7,4a10.1,10.1,0,0,0,2.6-.4c3.9-.4,5-4.6,5-7.5C245.7,64.3,245.8,43.1,244.4,29.8Z" fill="#231f20"/><path d="M272.3,97.9h-2.6c-.2-3.7-.2-79.5-.2-84.6,12.1,0,27.8,1.7,33.8,13.1a88,88,0,0,1,4.1,28c0,8.4-.9,16.4-1.5,23.6C304.5,93.9,293.6,97.9,272.3,97.9Zm19.6-66.1c-3.2-3.4-6.9-5.3-10.3-5.4-.3,4.8.2,15.5.2,21.5,0,12.1-.4,24.4-.2,36l5.1-.5c6.6-.5,7.8-6.3,8.5-12.9C296.3,58.6,298.2,38.7,291.9,31.8Z" fill="#231f20"/><path d="M109.5,141.7a170.4,170.4,0,0,1-1.4,20.4c-.6,4.9-6.3,8.1-10.9,9.4l-7.7.5-.3,35.5H75.7c.6-10.1.7-20.5.7-31.2,0-8.6-.1-17.3-.1-25.8s.1-18.5.5-27.4a218.4,218.4,0,0,1,25,1c2.8.9,5.9,3.3,7,6.2A71.1,71.1,0,0,1,109.5,141.7Zm-20.9-8.6c0,7.7.9,18.8.9,27.5h1.6c2.5,0,5.2-.4,6.3-2s1.7-6.6,1.7-11.9a45.2,45.2,0,0,0-1-10.2C96.9,132.9,91.1,133.1,88.6,133.1Z" fill="#231f20"/><path d="M156.6,154.1c0,19.7-.6,39.5-4.2,45.6s-8.4,8-13.6,9.6H137c-6.7,0-12.8-1.7-17.6-6.9s-4.1-18.8-4.6-29.1c-.1-2.2-.1-4.7-.1-7.1,0-13.3,1.2-28.5,1.8-42.9h12.8v15.5c.1,17.4-3.3,36,.2,53,2.9,5.7,13.3,5,12.9-5.1,2.6-21.1,1.8-40.2,2.4-63.1l11.6-.3C156.5,128.3,156.6,137.7,156.6,154.1Z" fill="#231f20"/><path d="M180.4,136.8c-2.8,2-4.4,5.9-4.4,9.8a12.4,12.4,0,0,0,2.1,7.2c4.7,7,14.2,18.7,14.2,31.5a25.4,25.4,0,0,1-5.4,15.5c-5.5,5.4-15.6,7.1-27.4,7.1l-.2-13.5h4.6c4.8,0,10.9-.5,14.4-5.8a24.8,24.8,0,0,0,.5-4.5c0-14.3-15-22.3-15.7-33.7-.1-1.3-.1-2.5-.1-3.9,0-7.3,1.4-15.7,7.9-20.6,3.3-2.4,10-4.1,16.8-4.6l2,12.6C186.1,134.4,182.8,134.9,180.4,136.8Z" fill="#231f20"/><path d="M225.8,207.5V168.7a98.8,98.8,0,0,0-14.4,0c0,4.1,0,8.9.1,14.6s-.1,13.1-.1,24.2H198.3l-.7-72.7V123.7c3.7,0,8.8-1,12.5-1h.5l.5,32.4c4.3.5,10.3.4,14.4.6.7-10.1-.4-27-.4-33,2.4,0,8.1.5,13.5.7.5,14.4.6,28.6.6,43s-.1,26.5-.2,40.4Z" fill="#231f20"/><path d="M281.8,207.7c-1.7-4.7-2.6-12.3-3.9-17.7-5.9-.4-12.3,0-18.2.1l-4.6,17.6-7.7-.2a24.2,24.2,0,0,0-3.8.2l1.8-8.4,17-75.9h12.4c7.3,23,14,55.3,21.6,84.4Zm-12.9-61.5c-2.6,10.6-6,31.4-6,31.4h12.3C273.2,166.9,271.3,155.9,268.9,146.2Z" fill="#231f20"/><path d="M325.5,137c-4.8,3.1-7.4,12.9-3.9,18.6s11,15.7,12.3,26.2a15.3,15.3,0,0,1,.3,3,24.9,24.9,0,0,1-6.4,16.5c-4.9,4.3-13.1,5.9-22.8,5.9h-5.2l.5-13.6c4.5,0,14.4,2,19.7-4.9a20.1,20.1,0,0,0-.6-12.3c-3.5-9.4-12.8-15.8-12.8-24.8s2-20.5,10-25.8c3.4-2.3,10.1-3.7,16.9-3.8l.7,11.8A18.2,18.2,0,0,0,325.5,137Z" fill="#231f20"/></svg>