<svg xmlns="http://www.w3.org/2000/svg" width="2.4in" height="240" viewBox="0 0 176 176.9"><path d="M176 88.6v48.9c0 16.8-9.7 31.3-25.6 36.2-7.1 2.2-15 2.8-22.6 2.9-27.7.3-55.3.4-83 0-12.6-.2-24.8-2.5-34.1-12.5C3.5 156.3.3 146.9.2 136.7-.1 104.4 0 72.1.1 39.8.2 21.2 10.9 6.7 28.3 1.9A60.4 60.4 0 0 1 43.6.1c28.8-.1 57.6-.2 86.5 0a98.3 98.3 0 0 1 18.7 2.1C165 5.6 176 22.7 176 38.6v50zM37.3 44.9C31.5 57 33.7 67 42.5 76.8l-8.3-1.9c-.3 12 6.8 18.1 17 23.7h-8.4c2.1 8.8 8.3 14.1 20.2 17-10 7.4-21 9.7-34.2 9.1a41.3 41.3 0 0 0 4.9 3.2c22.1 10.7 44.4 11.4 66.2-.3s32.6-30.6 35.3-54.7c.5-5.2 1.4-9.9 6.2-13.1 2.1-1.4 3.3-4 5-6l-.9-.8-8 1.8 6.6-11.2c-12.1 4.5-12 4.5-23.2-.7S93 42.7 88.2 56.2c-1.5 4.2-2 8.6-3.1 13.4-19.1-1-34.4-10-47.8-24.7z"/><path fill="#fff" d="M37.3 44.9C50.7 59.6 66 68.6 85.1 69.6c1.1-4.8 1.6-9.2 3.1-13.4 4.8-13.5 20.2-19.1 32.7-13.3s11.1 5.2 23.2.7l-6.6 11.2 8-1.8.9.8c-1.7 2-2.9 4.6-5 6-4.8 3.2-5.7 7.9-6.2 13.1-2.7 24.1-13.8 43.1-35.3 54.7s-44.1 11-66.2.3a41.3 41.3 0 0 1-4.9-3.2c13.2.6 24.2-1.7 34.2-9.1-11.9-2.9-18.1-8.2-20.2-17h8.4C41 93 33.9 86.9 34.2 74.9l8.3 1.9c-8.8-9.8-11-19.8-5.2-31.9z"/></svg>